<svg width="202" height="202" viewBox="0 0 202 202" fill="none" xmlns="http://www.w3.org/2000/svg">
<rect width="202" height="202" rx="45" fill="#1C1B1A"/>
<rect x="27" y="29" width="63" height="63" rx="14.0347" fill="#DAD8CE"/>
<rect x="112" y="29" width="63" height="63" rx="14.0347" fill="#DAD8CE"/>
<rect x="27" y="110" width="63" height="63" rx="14.0347" fill="#DAD8CE"/>
<rect x="112" y="110" width="63" height="63" rx="14.0347" fill="#DAD8CE"/>
<path d="M56.8287 85.8956V36.9395H59.9649V85.8956H56.8287ZM63.6366 54.0741C63.5346 52.7992 63.0566 51.8048 62.2024 51.0909C61.3609 50.3769 60.0797 50.0199 58.3585 50.0199C57.2621 50.0199 56.3633 50.1538 55.6621 50.4215C54.9737 50.6765 54.4637 51.0271 54.1323 51.4733C53.8008 51.9195 53.6287 52.4295 53.6159 53.0032C53.5904 53.4749 53.6733 53.902 53.8645 54.2845C54.0685 54.6542 54.3872 54.9921 54.8207 55.298C55.2542 55.5913 55.8088 55.859 56.4844 56.1012C57.1601 56.3434 57.9633 56.5602 58.894 56.7514L62.1068 57.4399C64.2741 57.8988 66.1291 58.5044 67.6717 59.2566C69.2143 60.0088 70.4765 60.8948 71.4581 61.9148C72.4398 62.9219 73.1601 64.0566 73.6191 65.3187C74.0908 66.5809 74.333 67.9578 74.3458 69.4494C74.333 72.0247 73.6892 74.2048 72.4143 75.9896C71.1394 77.7745 69.3163 79.1323 66.945 80.0629C64.5864 80.9936 61.7498 81.459 58.435 81.459C55.0311 81.459 52.0605 80.9554 49.5235 79.9482C46.9992 78.941 45.0359 77.392 43.6335 75.3012C42.2438 73.1976 41.5426 70.5076 41.5299 67.2311H51.6271C51.6908 68.4295 51.9904 69.4367 52.5259 70.2526C53.0613 71.0685 53.8135 71.6869 54.7825 72.1076C55.7641 72.5283 56.9307 72.7387 58.2821 72.7387C59.4167 72.7387 60.3665 72.5984 61.1315 72.3179C61.8964 72.0375 62.4765 71.6486 62.8717 71.1514C63.2669 70.6542 63.4709 70.0869 63.4836 69.4494C63.4709 68.8502 63.2733 68.3275 62.8908 67.8813C62.5211 67.4223 61.9091 67.0144 61.055 66.6574C60.2008 66.2877 59.047 65.9434 57.5936 65.6247L53.6924 64.7833C50.2247 64.0311 47.49 62.7753 45.4884 61.016C43.4996 59.2438 42.5116 56.8279 42.5243 53.7682C42.5116 51.2821 43.1745 49.1084 44.5131 47.247C45.8645 45.3729 47.7323 43.9132 50.1163 42.8678C52.5131 41.8223 55.2605 41.2996 58.3585 41.2996C61.5203 41.2996 64.255 41.8287 66.5625 42.8869C68.8701 43.9451 70.6486 45.4367 71.898 47.3618C73.1601 49.2741 73.7976 51.5116 73.8103 54.0741H63.6366Z" fill="black"/>
<path d="M129.513 139.565V130.998H157.816V139.565H129.513ZM129.513 153.181V144.614H157.816V153.181H129.513Z" fill="black"/>
<path d="M138.712 76.2406V47.9379H147.279V76.2406H138.712ZM128.844 66.3729V57.8056H157.147V66.3729H128.844Z" fill="black"/>
<path d="M54.2139 127.626L58.4976 136.729L63.0108 127.626H73.4904L65.6115 142.313L73.8729 157H63.4697L58.4976 147.668L53.6785 157H43.1223L51.4602 142.313L43.6578 127.626H54.2139Z" fill="black"/>
</svg>
